<mxfile host="app.diagrams.net" modified="2024-03-13T04:30:14.384Z" agent="Mozilla/5.0 (Windows NT 10.0; Win64; x64) AppleWebKit/537.36 (KHTML, like Gecko) Chrome/122.0.0.0 Safari/537.36" version="24.0.0" etag="ovq32UsP8KefzQNRhv4A" type="github">
  <diagram name="PÃ¡gina-1" id="ovx2yaOoaBxQCLp0WQl1">
    <mxGraphModel>
      <root>
        <mxCell id="0" />
        <mxCell id="1" parent="0" />
      </root>
    </mxGraphModel>
  </diagram>
</mxfile>
